<mxfile host="app.diagrams.net" agent="Mozilla/5.0 (Windows NT 10.0; Win64; x64) AppleWebKit/537.36 (KHTML, like Gecko) Chrome/133.0.0.0 Safari/537.36" version="26.1.0">
  <diagram name="Trang-1" id="_6evmbMIPIiVMoW6czxg">
    <mxGraphModel grid="1" page="1" gridSize="10" guides="1" tooltips="1" connect="1" arrows="1" fold="1" pageScale="1" pageWidth="3300" pageHeight="4681" math="0" shadow="0">
      <root>
        <mxCell id="0" />
        <mxCell id="1" parent="0" />
        <mxCell id="ONlgaFHXyNpKFOfT3H3A-1" value="Full name" style="ellipse;whiteSpace=wrap;html=1;" vertex="1" parent="1">
          <mxGeometry x="630" y="560" width="120" height="80" as="geometry" />
        </mxCell>
        <mxCell id="ONlgaFHXyNpKFOfT3H3A-2" value="&lt;b&gt;USER&amp;nbsp;&lt;/b&gt;" style="rounded=0;whiteSpace=wrap;html=1;" vertex="1" parent="1">
          <mxGeometry x="740" y="730" width="120" height="60" as="geometry" />
        </mxCell>
        <mxCell id="ONlgaFHXyNpKFOfT3H3A-3" value="password hash" style="ellipse;whiteSpace=wrap;html=1;" vertex="1" parent="1">
          <mxGeometry x="550" y="800" width="120" height="80" as="geometry" />
        </mxCell>
        <mxCell id="ONlgaFHXyNpKFOfT3H3A-4" value="role" style="ellipse;whiteSpace=wrap;html=1;" vertex="1" parent="1">
          <mxGeometry x="640" y="860" width="120" height="80" as="geometry" />
        </mxCell>
        <mxCell id="ONlgaFHXyNpKFOfT3H3A-5" value="phone" style="ellipse;whiteSpace=wrap;html=1;" vertex="1" parent="1">
          <mxGeometry x="540" y="710" width="120" height="80" as="geometry" />
        </mxCell>
        <mxCell id="ONlgaFHXyNpKFOfT3H3A-6" value="&lt;u&gt;User id&lt;/u&gt;" style="ellipse;whiteSpace=wrap;html=1;" vertex="1" parent="1">
          <mxGeometry x="760" y="600" width="120" height="80" as="geometry" />
        </mxCell>
        <mxCell id="ONlgaFHXyNpKFOfT3H3A-7" value="email" style="ellipse;whiteSpace=wrap;html=1;" vertex="1" parent="1">
          <mxGeometry x="550" y="630" width="120" height="80" as="geometry" />
        </mxCell>
        <mxCell id="ONlgaFHXyNpKFOfT3H3A-9" value="&lt;b&gt;SHOP&lt;/b&gt;" style="rounded=0;whiteSpace=wrap;html=1;" vertex="1" parent="1">
          <mxGeometry x="1010" y="540" width="120" height="60" as="geometry" />
        </mxCell>
        <mxCell id="ONlgaFHXyNpKFOfT3H3A-10" value="&lt;u&gt;shop id&lt;/u&gt;" style="ellipse;whiteSpace=wrap;html=1;" vertex="1" parent="1">
          <mxGeometry x="800" y="410" width="120" height="80" as="geometry" />
        </mxCell>
        <mxCell id="ONlgaFHXyNpKFOfT3H3A-11" value="owner id" style="ellipse;whiteSpace=wrap;html=1;" vertex="1" parent="1">
          <mxGeometry x="950" y="390" width="120" height="80" as="geometry" />
        </mxCell>
        <mxCell id="ONlgaFHXyNpKFOfT3H3A-12" value="shop name" style="ellipse;whiteSpace=wrap;html=1;" vertex="1" parent="1">
          <mxGeometry x="1120" y="400" width="120" height="80" as="geometry" />
        </mxCell>
        <mxCell id="ONlgaFHXyNpKFOfT3H3A-13" value="location" style="ellipse;whiteSpace=wrap;html=1;" vertex="1" parent="1">
          <mxGeometry x="960" y="280" width="120" height="80" as="geometry" />
        </mxCell>
        <mxCell id="ONlgaFHXyNpKFOfT3H3A-14" value="operating hours" style="ellipse;whiteSpace=wrap;html=1;" vertex="1" parent="1">
          <mxGeometry x="780" y="500" width="120" height="80" as="geometry" />
        </mxCell>
        <mxCell id="ONlgaFHXyNpKFOfT3H3A-15" value="service offered" style="ellipse;whiteSpace=wrap;html=1;" vertex="1" parent="1">
          <mxGeometry x="820" y="310" width="120" height="80" as="geometry" />
        </mxCell>
        <mxCell id="ONlgaFHXyNpKFOfT3H3A-16" value="&lt;b&gt;SERVICE&lt;/b&gt;" style="rounded=0;whiteSpace=wrap;html=1;" vertex="1" parent="1">
          <mxGeometry x="1330" y="540" width="120" height="60" as="geometry" />
        </mxCell>
        <mxCell id="ONlgaFHXyNpKFOfT3H3A-17" value="&lt;u&gt;service id&lt;/u&gt;" style="ellipse;whiteSpace=wrap;html=1;" vertex="1" parent="1">
          <mxGeometry x="1450" y="440" width="120" height="80" as="geometry" />
        </mxCell>
        <mxCell id="ONlgaFHXyNpKFOfT3H3A-18" value="shop id" style="ellipse;whiteSpace=wrap;html=1;" vertex="1" parent="1">
          <mxGeometry x="1580" y="450" width="120" height="80" as="geometry" />
        </mxCell>
        <mxCell id="ONlgaFHXyNpKFOfT3H3A-19" value="service name" style="ellipse;whiteSpace=wrap;html=1;" vertex="1" parent="1">
          <mxGeometry x="1610" y="530" width="120" height="80" as="geometry" />
        </mxCell>
        <mxCell id="ONlgaFHXyNpKFOfT3H3A-21" value="price" style="ellipse;whiteSpace=wrap;html=1;" vertex="1" parent="1">
          <mxGeometry x="1420" y="620" width="120" height="80" as="geometry" />
        </mxCell>
        <mxCell id="ONlgaFHXyNpKFOfT3H3A-23" value="&lt;b&gt;STAFF&lt;/b&gt;" style="rounded=0;whiteSpace=wrap;html=1;" vertex="1" parent="1">
          <mxGeometry x="1330" y="380" width="120" height="60" as="geometry" />
        </mxCell>
        <mxCell id="ONlgaFHXyNpKFOfT3H3A-24" value="&lt;u&gt;staff id&lt;/u&gt;" style="ellipse;whiteSpace=wrap;html=1;" vertex="1" parent="1">
          <mxGeometry x="1200" y="250" width="120" height="80" as="geometry" />
        </mxCell>
        <mxCell id="ONlgaFHXyNpKFOfT3H3A-25" value="shop id" style="ellipse;whiteSpace=wrap;html=1;" vertex="1" parent="1">
          <mxGeometry x="1450" y="220" width="120" height="80" as="geometry" />
        </mxCell>
        <mxCell id="ONlgaFHXyNpKFOfT3H3A-26" value="user id" style="ellipse;whiteSpace=wrap;html=1;" vertex="1" parent="1">
          <mxGeometry x="1320" y="220" width="120" height="80" as="geometry" />
        </mxCell>
        <mxCell id="ONlgaFHXyNpKFOfT3H3A-27" value="role" style="ellipse;whiteSpace=wrap;html=1;" vertex="1" parent="1">
          <mxGeometry x="1490" y="300" width="120" height="80" as="geometry" />
        </mxCell>
        <mxCell id="ONlgaFHXyNpKFOfT3H3A-30" value="&lt;b&gt;REVIEW&lt;/b&gt;" style="rounded=0;whiteSpace=wrap;html=1;" vertex="1" parent="1">
          <mxGeometry x="1330" y="730" width="120" height="60" as="geometry" />
        </mxCell>
        <mxCell id="ONlgaFHXyNpKFOfT3H3A-31" value="shop id" style="ellipse;whiteSpace=wrap;html=1;" vertex="1" parent="1">
          <mxGeometry x="1570" y="860" width="120" height="80" as="geometry" />
        </mxCell>
        <mxCell id="ONlgaFHXyNpKFOfT3H3A-32" value="created at" style="ellipse;whiteSpace=wrap;html=1;" vertex="1" parent="1">
          <mxGeometry x="1460" y="900" width="120" height="80" as="geometry" />
        </mxCell>
        <mxCell id="ONlgaFHXyNpKFOfT3H3A-33" value="rating" style="ellipse;whiteSpace=wrap;html=1;" vertex="1" parent="1">
          <mxGeometry x="1260" y="810" width="120" height="80" as="geometry" />
        </mxCell>
        <mxCell id="ONlgaFHXyNpKFOfT3H3A-34" value="review id" style="ellipse;whiteSpace=wrap;html=1;" vertex="1" parent="1">
          <mxGeometry x="1500" y="700" width="120" height="80" as="geometry" />
        </mxCell>
        <mxCell id="ONlgaFHXyNpKFOfT3H3A-35" value="comment" style="ellipse;whiteSpace=wrap;html=1;" vertex="1" parent="1">
          <mxGeometry x="1340" y="890" width="120" height="80" as="geometry" />
        </mxCell>
        <mxCell id="ONlgaFHXyNpKFOfT3H3A-36" value="customer id" style="ellipse;whiteSpace=wrap;html=1;" vertex="1" parent="1">
          <mxGeometry x="1560" y="780" width="120" height="80" as="geometry" />
        </mxCell>
        <mxCell id="ONlgaFHXyNpKFOfT3H3A-42" value="&lt;b&gt;ORDERS&lt;/b&gt;" style="rounded=0;whiteSpace=wrap;html=1;" vertex="1" parent="1">
          <mxGeometry x="1010" y="940" width="120" height="60" as="geometry" />
        </mxCell>
        <mxCell id="ONlgaFHXyNpKFOfT3H3A-43" value="shop id" style="ellipse;whiteSpace=wrap;html=1;" vertex="1" parent="1">
          <mxGeometry x="880" y="1180" width="120" height="80" as="geometry" />
        </mxCell>
        <mxCell id="ONlgaFHXyNpKFOfT3H3A-44" value="created at" style="ellipse;whiteSpace=wrap;html=1;" vertex="1" parent="1">
          <mxGeometry x="730" y="940" width="120" height="80" as="geometry" />
        </mxCell>
        <mxCell id="ONlgaFHXyNpKFOfT3H3A-45" value="&lt;u&gt;order id&lt;/u&gt;" style="ellipse;whiteSpace=wrap;html=1;" vertex="1" parent="1">
          <mxGeometry x="700" y="1130" width="120" height="80" as="geometry" />
        </mxCell>
        <mxCell id="ONlgaFHXyNpKFOfT3H3A-46" value="total amount" style="ellipse;whiteSpace=wrap;html=1;" vertex="1" parent="1">
          <mxGeometry x="730" y="1030" width="120" height="80" as="geometry" />
        </mxCell>
        <mxCell id="ONlgaFHXyNpKFOfT3H3A-47" value="status" style="ellipse;whiteSpace=wrap;html=1;" vertex="1" parent="1">
          <mxGeometry x="830" y="1090" width="120" height="80" as="geometry" />
        </mxCell>
        <mxCell id="ONlgaFHXyNpKFOfT3H3A-48" value="customer id" style="ellipse;whiteSpace=wrap;html=1;" vertex="1" parent="1">
          <mxGeometry x="990" y="1090" width="120" height="80" as="geometry" />
        </mxCell>
        <mxCell id="ONlgaFHXyNpKFOfT3H3A-49" value="&lt;b&gt;ORDER DETAILS&lt;/b&gt;" style="rounded=0;whiteSpace=wrap;html=1;" vertex="1" parent="1">
          <mxGeometry x="1330" y="1020" width="120" height="60" as="geometry" />
        </mxCell>
        <mxCell id="ONlgaFHXyNpKFOfT3H3A-50" value="&lt;b&gt;PAYMENTS&lt;/b&gt;" style="rounded=0;whiteSpace=wrap;html=1;" vertex="1" parent="1">
          <mxGeometry x="1170" y="1220" width="120" height="60" as="geometry" />
        </mxCell>
        <mxCell id="ONlgaFHXyNpKFOfT3H3A-51" value="&lt;u&gt;order detail id&lt;/u&gt;" style="ellipse;whiteSpace=wrap;html=1;" vertex="1" parent="1">
          <mxGeometry x="1510" y="1010" width="120" height="80" as="geometry" />
        </mxCell>
        <mxCell id="ONlgaFHXyNpKFOfT3H3A-52" value="order id" style="ellipse;whiteSpace=wrap;html=1;" vertex="1" parent="1">
          <mxGeometry x="1540" y="1100" width="120" height="80" as="geometry" />
        </mxCell>
        <mxCell id="ONlgaFHXyNpKFOfT3H3A-53" value="quantity" style="ellipse;whiteSpace=wrap;html=1;" vertex="1" parent="1">
          <mxGeometry x="1400" y="1180" width="120" height="80" as="geometry" />
        </mxCell>
        <mxCell id="ONlgaFHXyNpKFOfT3H3A-54" value="sub total" style="ellipse;whiteSpace=wrap;html=1;" vertex="1" parent="1">
          <mxGeometry x="1280" y="1120" width="120" height="80" as="geometry" />
        </mxCell>
        <mxCell id="ONlgaFHXyNpKFOfT3H3A-55" value="service id" style="ellipse;whiteSpace=wrap;html=1;" vertex="1" parent="1">
          <mxGeometry x="1530" y="1190" width="120" height="80" as="geometry" />
        </mxCell>
        <mxCell id="ONlgaFHXyNpKFOfT3H3A-56" value="&lt;u&gt;payment id&lt;/u&gt;" style="ellipse;whiteSpace=wrap;html=1;" vertex="1" parent="1">
          <mxGeometry x="990" y="1250" width="120" height="80" as="geometry" />
        </mxCell>
        <mxCell id="ONlgaFHXyNpKFOfT3H3A-57" value="order id" style="ellipse;whiteSpace=wrap;html=1;" vertex="1" parent="1">
          <mxGeometry x="1020" y="1340" width="120" height="80" as="geometry" />
        </mxCell>
        <mxCell id="ONlgaFHXyNpKFOfT3H3A-58" value="amount" style="ellipse;whiteSpace=wrap;html=1;" vertex="1" parent="1">
          <mxGeometry x="1070" y="1430" width="120" height="80" as="geometry" />
        </mxCell>
        <mxCell id="ONlgaFHXyNpKFOfT3H3A-59" value="payment status" style="ellipse;whiteSpace=wrap;html=1;" vertex="1" parent="1">
          <mxGeometry x="1310" y="1370" width="120" height="80" as="geometry" />
        </mxCell>
        <mxCell id="ONlgaFHXyNpKFOfT3H3A-60" value="payment method" style="ellipse;whiteSpace=wrap;html=1;" vertex="1" parent="1">
          <mxGeometry x="1180" y="1380" width="120" height="80" as="geometry" />
        </mxCell>
        <mxCell id="0LbBZXUiAwPrwAWk88Ti-1" value="create at" style="ellipse;whiteSpace=wrap;html=1;" vertex="1" parent="1">
          <mxGeometry x="760" y="830" width="120" height="80" as="geometry" />
        </mxCell>
        <mxCell id="0LbBZXUiAwPrwAWk88Ti-2" value="create at" style="ellipse;whiteSpace=wrap;html=1;" vertex="1" parent="1">
          <mxGeometry x="1080" y="310" width="120" height="80" as="geometry" />
        </mxCell>
        <mxCell id="0LbBZXUiAwPrwAWk88Ti-3" value="" style="endArrow=none;html=1;rounded=0;entryX=1;entryY=1;entryDx=0;entryDy=0;exitX=0.25;exitY=0;exitDx=0;exitDy=0;" edge="1" parent="1" source="ONlgaFHXyNpKFOfT3H3A-9" target="ONlgaFHXyNpKFOfT3H3A-10">
          <mxGeometry width="50" height="50" relative="1" as="geometry">
            <mxPoint x="920" y="510" as="sourcePoint" />
            <mxPoint x="970" y="460" as="targetPoint" />
          </mxGeometry>
        </mxCell>
        <mxCell id="0LbBZXUiAwPrwAWk88Ti-4" value="" style="endArrow=none;html=1;rounded=0;exitX=0.5;exitY=0;exitDx=0;exitDy=0;" edge="1" parent="1" source="ONlgaFHXyNpKFOfT3H3A-9" target="ONlgaFHXyNpKFOfT3H3A-11">
          <mxGeometry width="50" height="50" relative="1" as="geometry">
            <mxPoint x="1080" y="550" as="sourcePoint" />
            <mxPoint x="1110" y="450" as="targetPoint" />
          </mxGeometry>
        </mxCell>
        <mxCell id="0LbBZXUiAwPrwAWk88Ti-5" value="" style="endArrow=none;html=1;rounded=0;entryX=0;entryY=1;entryDx=0;entryDy=0;exitX=0.5;exitY=0;exitDx=0;exitDy=0;" edge="1" parent="1" source="ONlgaFHXyNpKFOfT3H3A-9" target="ONlgaFHXyNpKFOfT3H3A-12">
          <mxGeometry width="50" height="50" relative="1" as="geometry">
            <mxPoint x="1090" y="560" as="sourcePoint" />
            <mxPoint x="1120" y="460" as="targetPoint" />
          </mxGeometry>
        </mxCell>
        <mxCell id="0LbBZXUiAwPrwAWk88Ti-6" value="" style="endArrow=none;html=1;rounded=0;entryX=0.5;entryY=1;entryDx=0;entryDy=0;exitX=0.5;exitY=0;exitDx=0;exitDy=0;" edge="1" parent="1" source="ONlgaFHXyNpKFOfT3H3A-9" target="ONlgaFHXyNpKFOfT3H3A-13">
          <mxGeometry width="50" height="50" relative="1" as="geometry">
            <mxPoint x="1100" y="570" as="sourcePoint" />
            <mxPoint x="1130" y="470" as="targetPoint" />
          </mxGeometry>
        </mxCell>
        <mxCell id="0LbBZXUiAwPrwAWk88Ti-7" value="" style="endArrow=none;html=1;rounded=0;entryX=0.5;entryY=0;entryDx=0;entryDy=0;exitX=0.5;exitY=1;exitDx=0;exitDy=0;" edge="1" parent="1" source="0LbBZXUiAwPrwAWk88Ti-2" target="ONlgaFHXyNpKFOfT3H3A-9">
          <mxGeometry width="50" height="50" relative="1" as="geometry">
            <mxPoint x="1150" y="760" as="sourcePoint" />
            <mxPoint x="1160" y="640" as="targetPoint" />
          </mxGeometry>
        </mxCell>
        <mxCell id="0LbBZXUiAwPrwAWk88Ti-8" value="" style="endArrow=none;html=1;rounded=0;entryX=0.25;entryY=0;entryDx=0;entryDy=0;exitX=0.683;exitY=1.005;exitDx=0;exitDy=0;exitPerimeter=0;" edge="1" parent="1" source="ONlgaFHXyNpKFOfT3H3A-15" target="ONlgaFHXyNpKFOfT3H3A-9">
          <mxGeometry width="50" height="50" relative="1" as="geometry">
            <mxPoint x="890" y="310" as="sourcePoint" />
            <mxPoint x="1150" y="490" as="targetPoint" />
          </mxGeometry>
        </mxCell>
        <mxCell id="0LbBZXUiAwPrwAWk88Ti-9" value="" style="endArrow=none;html=1;rounded=0;entryX=1;entryY=0.5;entryDx=0;entryDy=0;exitX=0;exitY=0.25;exitDx=0;exitDy=0;" edge="1" parent="1" source="ONlgaFHXyNpKFOfT3H3A-9" target="ONlgaFHXyNpKFOfT3H3A-14">
          <mxGeometry width="50" height="50" relative="1" as="geometry">
            <mxPoint x="1130" y="600" as="sourcePoint" />
            <mxPoint x="1160" y="500" as="targetPoint" />
          </mxGeometry>
        </mxCell>
        <mxCell id="0LbBZXUiAwPrwAWk88Ti-10" value="" style="endArrow=none;html=1;rounded=0;entryX=0.5;entryY=1;entryDx=0;entryDy=0;exitX=0.5;exitY=0;exitDx=0;exitDy=0;" edge="1" parent="1" source="ONlgaFHXyNpKFOfT3H3A-2" target="ONlgaFHXyNpKFOfT3H3A-6">
          <mxGeometry width="50" height="50" relative="1" as="geometry">
            <mxPoint x="790" y="650" as="sourcePoint" />
            <mxPoint x="840" y="600" as="targetPoint" />
          </mxGeometry>
        </mxCell>
        <mxCell id="0LbBZXUiAwPrwAWk88Ti-11" value="" style="endArrow=none;html=1;rounded=0;entryX=1;entryY=1;entryDx=0;entryDy=0;exitX=0.25;exitY=0;exitDx=0;exitDy=0;" edge="1" parent="1" source="ONlgaFHXyNpKFOfT3H3A-2" target="ONlgaFHXyNpKFOfT3H3A-1">
          <mxGeometry width="50" height="50" relative="1" as="geometry">
            <mxPoint x="800" y="700" as="sourcePoint" />
            <mxPoint x="755" y="566" as="targetPoint" />
          </mxGeometry>
        </mxCell>
        <mxCell id="0LbBZXUiAwPrwAWk88Ti-12" value="" style="endArrow=none;html=1;rounded=0;entryX=1;entryY=0.5;entryDx=0;entryDy=0;exitX=0;exitY=0.25;exitDx=0;exitDy=0;" edge="1" parent="1" source="ONlgaFHXyNpKFOfT3H3A-2" target="ONlgaFHXyNpKFOfT3H3A-7">
          <mxGeometry width="50" height="50" relative="1" as="geometry">
            <mxPoint x="720" y="790" as="sourcePoint" />
            <mxPoint x="765" y="576" as="targetPoint" />
          </mxGeometry>
        </mxCell>
        <mxCell id="0LbBZXUiAwPrwAWk88Ti-13" value="" style="endArrow=none;html=1;rounded=0;entryX=1.016;entryY=0.387;entryDx=0;entryDy=0;entryPerimeter=0;exitX=0;exitY=0.75;exitDx=0;exitDy=0;" edge="1" parent="1" source="ONlgaFHXyNpKFOfT3H3A-2" target="ONlgaFHXyNpKFOfT3H3A-5">
          <mxGeometry width="50" height="50" relative="1" as="geometry">
            <mxPoint x="872" y="735" as="sourcePoint" />
            <mxPoint x="775" y="586" as="targetPoint" />
          </mxGeometry>
        </mxCell>
        <mxCell id="0LbBZXUiAwPrwAWk88Ti-14" value="" style="endArrow=none;html=1;rounded=0;exitX=1;exitY=0.5;exitDx=0;exitDy=0;entryX=0.17;entryY=1.047;entryDx=0;entryDy=0;entryPerimeter=0;" edge="1" parent="1" source="ONlgaFHXyNpKFOfT3H3A-3" target="ONlgaFHXyNpKFOfT3H3A-2">
          <mxGeometry width="50" height="50" relative="1" as="geometry">
            <mxPoint x="750" y="880" as="sourcePoint" />
            <mxPoint x="800" y="830" as="targetPoint" />
          </mxGeometry>
        </mxCell>
        <mxCell id="0LbBZXUiAwPrwAWk88Ti-15" value="" style="endArrow=none;html=1;rounded=0;exitX=0.5;exitY=1;exitDx=0;exitDy=0;entryX=0.679;entryY=0.056;entryDx=0;entryDy=0;entryPerimeter=0;" edge="1" parent="1" source="ONlgaFHXyNpKFOfT3H3A-2" target="ONlgaFHXyNpKFOfT3H3A-4">
          <mxGeometry width="50" height="50" relative="1" as="geometry">
            <mxPoint x="882" y="745" as="sourcePoint" />
            <mxPoint x="785" y="596" as="targetPoint" />
          </mxGeometry>
        </mxCell>
        <mxCell id="0LbBZXUiAwPrwAWk88Ti-16" value="" style="endArrow=none;html=1;rounded=0;exitX=0.5;exitY=0;exitDx=0;exitDy=0;entryX=0.667;entryY=0.978;entryDx=0;entryDy=0;entryPerimeter=0;" edge="1" parent="1" source="0LbBZXUiAwPrwAWk88Ti-1" target="ONlgaFHXyNpKFOfT3H3A-2">
          <mxGeometry width="50" height="50" relative="1" as="geometry">
            <mxPoint x="800" y="900" as="sourcePoint" />
            <mxPoint x="850" y="850" as="targetPoint" />
          </mxGeometry>
        </mxCell>
        <mxCell id="0LbBZXUiAwPrwAWk88Ti-17" value="" style="endArrow=none;html=1;rounded=0;exitX=0.67;exitY=0.073;exitDx=0;exitDy=0;entryX=0.25;entryY=1;entryDx=0;entryDy=0;exitPerimeter=0;" edge="1" parent="1" source="ONlgaFHXyNpKFOfT3H3A-45" target="ONlgaFHXyNpKFOfT3H3A-42">
          <mxGeometry width="50" height="50" relative="1" as="geometry">
            <mxPoint x="1040" y="1050" as="sourcePoint" />
            <mxPoint x="920" y="1350" as="targetPoint" />
          </mxGeometry>
        </mxCell>
        <mxCell id="0LbBZXUiAwPrwAWk88Ti-18" value="" style="endArrow=none;html=1;rounded=0;entryX=0.25;entryY=1;entryDx=0;entryDy=0;exitX=0.5;exitY=0;exitDx=0;exitDy=0;" edge="1" parent="1" source="ONlgaFHXyNpKFOfT3H3A-48" target="ONlgaFHXyNpKFOfT3H3A-42">
          <mxGeometry width="50" height="50" relative="1" as="geometry">
            <mxPoint x="1030" y="1040" as="sourcePoint" />
            <mxPoint x="1080" y="990" as="targetPoint" />
          </mxGeometry>
        </mxCell>
        <mxCell id="0LbBZXUiAwPrwAWk88Ti-19" value="" style="endArrow=none;html=1;rounded=0;entryX=0.25;entryY=1;entryDx=0;entryDy=0;" edge="1" parent="1" source="ONlgaFHXyNpKFOfT3H3A-47" target="ONlgaFHXyNpKFOfT3H3A-42">
          <mxGeometry width="50" height="50" relative="1" as="geometry">
            <mxPoint x="1060" y="1040" as="sourcePoint" />
            <mxPoint x="1110" y="990" as="targetPoint" />
          </mxGeometry>
        </mxCell>
        <mxCell id="0LbBZXUiAwPrwAWk88Ti-20" value="" style="endArrow=none;html=1;rounded=0;entryX=0.25;entryY=1;entryDx=0;entryDy=0;" edge="1" parent="1" source="ONlgaFHXyNpKFOfT3H3A-43" target="ONlgaFHXyNpKFOfT3H3A-42">
          <mxGeometry width="50" height="50" relative="1" as="geometry">
            <mxPoint x="1020" y="1080" as="sourcePoint" />
            <mxPoint x="1070" y="1030" as="targetPoint" />
          </mxGeometry>
        </mxCell>
        <mxCell id="0LbBZXUiAwPrwAWk88Ti-21" value="" style="endArrow=none;html=1;rounded=0;entryX=0.25;entryY=1;entryDx=0;entryDy=0;exitX=1;exitY=0;exitDx=0;exitDy=0;" edge="1" parent="1" source="ONlgaFHXyNpKFOfT3H3A-46" target="ONlgaFHXyNpKFOfT3H3A-42">
          <mxGeometry width="50" height="50" relative="1" as="geometry">
            <mxPoint x="990" y="1080" as="sourcePoint" />
            <mxPoint x="1040" y="1030" as="targetPoint" />
          </mxGeometry>
        </mxCell>
        <mxCell id="0LbBZXUiAwPrwAWk88Ti-22" value="" style="endArrow=none;html=1;rounded=0;entryX=0;entryY=1;entryDx=0;entryDy=0;exitX=1;exitY=0;exitDx=0;exitDy=0;" edge="1" parent="1" source="ONlgaFHXyNpKFOfT3H3A-44" target="ONlgaFHXyNpKFOfT3H3A-42">
          <mxGeometry width="50" height="50" relative="1" as="geometry">
            <mxPoint x="940" y="1090" as="sourcePoint" />
            <mxPoint x="990" y="1040" as="targetPoint" />
          </mxGeometry>
        </mxCell>
        <mxCell id="0LbBZXUiAwPrwAWk88Ti-23" value="" style="edgeStyle=entityRelationEdgeStyle;fontSize=12;html=1;endArrow=ERzeroToMany;startArrow=ERmandOne;rounded=0;exitX=1;exitY=0.5;exitDx=0;exitDy=0;entryX=0;entryY=0.5;entryDx=0;entryDy=0;" edge="1" parent="1" source="ONlgaFHXyNpKFOfT3H3A-2" target="ONlgaFHXyNpKFOfT3H3A-9">
          <mxGeometry width="100" height="100" relative="1" as="geometry">
            <mxPoint x="1590" y="690" as="sourcePoint" />
            <mxPoint x="1690" y="590" as="targetPoint" />
          </mxGeometry>
        </mxCell>
        <mxCell id="0LbBZXUiAwPrwAWk88Ti-24" value="" style="edgeStyle=entityRelationEdgeStyle;fontSize=12;html=1;endArrow=ERzeroToMany;startArrow=ERmandOne;rounded=0;exitX=1;exitY=1;exitDx=0;exitDy=0;entryX=0;entryY=0.5;entryDx=0;entryDy=0;" edge="1" parent="1" source="ONlgaFHXyNpKFOfT3H3A-2" target="ONlgaFHXyNpKFOfT3H3A-42">
          <mxGeometry width="100" height="100" relative="1" as="geometry">
            <mxPoint x="859.9999999999999" y="815" as="sourcePoint" />
            <mxPoint x="1010" y="930" as="targetPoint" />
            <Array as="points">
              <mxPoint x="900" y="830" />
            </Array>
          </mxGeometry>
        </mxCell>
        <mxCell id="0LbBZXUiAwPrwAWk88Ti-25" style="edgeStyle=orthogonalEdgeStyle;rounded=0;orthogonalLoop=1;jettySize=auto;html=1;exitX=0.5;exitY=1;exitDx=0;exitDy=0;" edge="1" parent="1" source="ONlgaFHXyNpKFOfT3H3A-43" target="ONlgaFHXyNpKFOfT3H3A-43">
          <mxGeometry relative="1" as="geometry" />
        </mxCell>
        <mxCell id="0LbBZXUiAwPrwAWk88Ti-26" value="create at" style="ellipse;whiteSpace=wrap;html=1;" vertex="1" parent="1">
          <mxGeometry x="1590" y="360" width="120" height="80" as="geometry" />
        </mxCell>
        <mxCell id="0LbBZXUiAwPrwAWk88Ti-27" value="" style="endArrow=none;html=1;rounded=0;entryX=0.683;entryY=0.975;entryDx=0;entryDy=0;exitX=0.5;exitY=0;exitDx=0;exitDy=0;entryPerimeter=0;" edge="1" parent="1" source="ONlgaFHXyNpKFOfT3H3A-23" target="ONlgaFHXyNpKFOfT3H3A-24">
          <mxGeometry width="50" height="50" relative="1" as="geometry">
            <mxPoint x="1390" y="370" as="sourcePoint" />
            <mxPoint x="1440" y="320" as="targetPoint" />
          </mxGeometry>
        </mxCell>
        <mxCell id="0LbBZXUiAwPrwAWk88Ti-28" value="" style="endArrow=none;html=1;rounded=0;entryX=0;entryY=1;entryDx=0;entryDy=0;exitX=0.5;exitY=0;exitDx=0;exitDy=0;" edge="1" parent="1" source="ONlgaFHXyNpKFOfT3H3A-23" target="ONlgaFHXyNpKFOfT3H3A-26">
          <mxGeometry width="50" height="50" relative="1" as="geometry">
            <mxPoint x="1600" y="390" as="sourcePoint" />
            <mxPoint x="1650" y="340" as="targetPoint" />
          </mxGeometry>
        </mxCell>
        <mxCell id="0LbBZXUiAwPrwAWk88Ti-29" value="" style="endArrow=none;html=1;rounded=0;entryX=0;entryY=1;entryDx=0;entryDy=0;exitX=0.5;exitY=0;exitDx=0;exitDy=0;" edge="1" parent="1" source="ONlgaFHXyNpKFOfT3H3A-23" target="ONlgaFHXyNpKFOfT3H3A-25">
          <mxGeometry width="50" height="50" relative="1" as="geometry">
            <mxPoint x="1580" y="340" as="sourcePoint" />
            <mxPoint x="1648" y="308" as="targetPoint" />
          </mxGeometry>
        </mxCell>
        <mxCell id="0LbBZXUiAwPrwAWk88Ti-30" value="" style="endArrow=none;html=1;rounded=0;entryX=0;entryY=1;entryDx=0;entryDy=0;exitX=1;exitY=0;exitDx=0;exitDy=0;" edge="1" parent="1" source="ONlgaFHXyNpKFOfT3H3A-23" target="ONlgaFHXyNpKFOfT3H3A-27">
          <mxGeometry width="50" height="50" relative="1" as="geometry">
            <mxPoint x="1590" y="350" as="sourcePoint" />
            <mxPoint x="1658" y="318" as="targetPoint" />
          </mxGeometry>
        </mxCell>
        <mxCell id="0LbBZXUiAwPrwAWk88Ti-31" value="" style="endArrow=none;html=1;rounded=0;entryX=0;entryY=0.5;entryDx=0;entryDy=0;exitX=1;exitY=0.5;exitDx=0;exitDy=0;" edge="1" parent="1" source="ONlgaFHXyNpKFOfT3H3A-23" target="0LbBZXUiAwPrwAWk88Ti-26">
          <mxGeometry width="50" height="50" relative="1" as="geometry">
            <mxPoint x="1600" y="360" as="sourcePoint" />
            <mxPoint x="1668" y="328" as="targetPoint" />
          </mxGeometry>
        </mxCell>
        <mxCell id="0LbBZXUiAwPrwAWk88Ti-32" value="create at" style="ellipse;whiteSpace=wrap;html=1;" vertex="1" parent="1">
          <mxGeometry x="1560" y="610" width="120" height="80" as="geometry" />
        </mxCell>
        <mxCell id="0LbBZXUiAwPrwAWk88Ti-33" value="" style="endArrow=none;html=1;rounded=0;entryX=0;entryY=1;entryDx=0;entryDy=0;exitX=1;exitY=0;exitDx=0;exitDy=0;" edge="1" parent="1" source="ONlgaFHXyNpKFOfT3H3A-16" target="ONlgaFHXyNpKFOfT3H3A-17">
          <mxGeometry width="50" height="50" relative="1" as="geometry">
            <mxPoint x="1600" y="680" as="sourcePoint" />
            <mxPoint x="1650" y="630" as="targetPoint" />
          </mxGeometry>
        </mxCell>
        <mxCell id="0LbBZXUiAwPrwAWk88Ti-35" value="" style="endArrow=none;html=1;rounded=0;entryX=0;entryY=1;entryDx=0;entryDy=0;exitX=1;exitY=0.25;exitDx=0;exitDy=0;" edge="1" parent="1" source="ONlgaFHXyNpKFOfT3H3A-16" target="ONlgaFHXyNpKFOfT3H3A-18">
          <mxGeometry width="50" height="50" relative="1" as="geometry">
            <mxPoint x="1620" y="590" as="sourcePoint" />
            <mxPoint x="1681" y="583" as="targetPoint" />
          </mxGeometry>
        </mxCell>
        <mxCell id="0LbBZXUiAwPrwAWk88Ti-36" value="" style="endArrow=none;html=1;rounded=0;entryX=0;entryY=0.5;entryDx=0;entryDy=0;exitX=1;exitY=0.5;exitDx=0;exitDy=0;" edge="1" parent="1" source="ONlgaFHXyNpKFOfT3H3A-16" target="ONlgaFHXyNpKFOfT3H3A-19">
          <mxGeometry width="50" height="50" relative="1" as="geometry">
            <mxPoint x="1630" y="600" as="sourcePoint" />
            <mxPoint x="1691" y="593" as="targetPoint" />
          </mxGeometry>
        </mxCell>
        <mxCell id="0LbBZXUiAwPrwAWk88Ti-37" value="" style="endArrow=none;html=1;rounded=0;entryX=1;entryY=1;entryDx=0;entryDy=0;exitX=0.5;exitY=0;exitDx=0;exitDy=0;" edge="1" parent="1" source="0LbBZXUiAwPrwAWk88Ti-32" target="ONlgaFHXyNpKFOfT3H3A-16">
          <mxGeometry width="50" height="50" relative="1" as="geometry">
            <mxPoint x="1640" y="610" as="sourcePoint" />
            <mxPoint x="1701" y="603" as="targetPoint" />
          </mxGeometry>
        </mxCell>
        <mxCell id="0LbBZXUiAwPrwAWk88Ti-38" value="" style="endArrow=none;html=1;rounded=0;entryX=1;entryY=1;entryDx=0;entryDy=0;exitX=0.5;exitY=0;exitDx=0;exitDy=0;" edge="1" parent="1" source="ONlgaFHXyNpKFOfT3H3A-21" target="ONlgaFHXyNpKFOfT3H3A-16">
          <mxGeometry width="50" height="50" relative="1" as="geometry">
            <mxPoint x="1650" y="620" as="sourcePoint" />
            <mxPoint x="1711" y="613" as="targetPoint" />
          </mxGeometry>
        </mxCell>
        <mxCell id="0LbBZXUiAwPrwAWk88Ti-40" value="" style="endArrow=none;html=1;rounded=0;exitX=1;exitY=0.5;exitDx=0;exitDy=0;entryX=0;entryY=0.5;entryDx=0;entryDy=0;" edge="1" parent="1" source="ONlgaFHXyNpKFOfT3H3A-30" target="ONlgaFHXyNpKFOfT3H3A-34">
          <mxGeometry width="50" height="50" relative="1" as="geometry">
            <mxPoint x="1570" y="930" as="sourcePoint" />
            <mxPoint x="1620" y="880" as="targetPoint" />
          </mxGeometry>
        </mxCell>
        <mxCell id="0LbBZXUiAwPrwAWk88Ti-41" value="" style="endArrow=none;html=1;rounded=0;exitX=1;exitY=0.75;exitDx=0;exitDy=0;entryX=0;entryY=0.5;entryDx=0;entryDy=0;" edge="1" parent="1" source="ONlgaFHXyNpKFOfT3H3A-30" target="ONlgaFHXyNpKFOfT3H3A-36">
          <mxGeometry width="50" height="50" relative="1" as="geometry">
            <mxPoint x="1620" y="820" as="sourcePoint" />
            <mxPoint x="1680" y="820" as="targetPoint" />
          </mxGeometry>
        </mxCell>
        <mxCell id="0LbBZXUiAwPrwAWk88Ti-42" value="" style="endArrow=none;html=1;rounded=0;exitX=1;exitY=0;exitDx=0;exitDy=0;entryX=0.25;entryY=1;entryDx=0;entryDy=0;" edge="1" parent="1" source="ONlgaFHXyNpKFOfT3H3A-33" target="ONlgaFHXyNpKFOfT3H3A-30">
          <mxGeometry width="50" height="50" relative="1" as="geometry">
            <mxPoint x="1630" y="830" as="sourcePoint" />
            <mxPoint x="1490" y="790" as="targetPoint" />
          </mxGeometry>
        </mxCell>
        <mxCell id="0LbBZXUiAwPrwAWk88Ti-43" value="" style="endArrow=none;html=1;rounded=0;exitX=0.5;exitY=0;exitDx=0;exitDy=0;entryX=0.5;entryY=1;entryDx=0;entryDy=0;" edge="1" parent="1" source="ONlgaFHXyNpKFOfT3H3A-35" target="ONlgaFHXyNpKFOfT3H3A-30">
          <mxGeometry width="50" height="50" relative="1" as="geometry">
            <mxPoint x="1640" y="840" as="sourcePoint" />
            <mxPoint x="1700" y="840" as="targetPoint" />
          </mxGeometry>
        </mxCell>
        <mxCell id="0LbBZXUiAwPrwAWk88Ti-44" value="" style="endArrow=none;html=1;rounded=0;exitX=0.5;exitY=0;exitDx=0;exitDy=0;entryX=0.661;entryY=1.025;entryDx=0;entryDy=0;entryPerimeter=0;" edge="1" parent="1" source="ONlgaFHXyNpKFOfT3H3A-32" target="ONlgaFHXyNpKFOfT3H3A-30">
          <mxGeometry width="50" height="50" relative="1" as="geometry">
            <mxPoint x="1650" y="850" as="sourcePoint" />
            <mxPoint x="1710" y="850" as="targetPoint" />
          </mxGeometry>
        </mxCell>
        <mxCell id="0LbBZXUiAwPrwAWk88Ti-45" value="" style="endArrow=none;html=1;rounded=0;exitX=0.75;exitY=1;exitDx=0;exitDy=0;entryX=0.018;entryY=0.326;entryDx=0;entryDy=0;entryPerimeter=0;" edge="1" parent="1" source="ONlgaFHXyNpKFOfT3H3A-30" target="ONlgaFHXyNpKFOfT3H3A-31">
          <mxGeometry width="50" height="50" relative="1" as="geometry">
            <mxPoint x="1660" y="860" as="sourcePoint" />
            <mxPoint x="1720" y="860" as="targetPoint" />
          </mxGeometry>
        </mxCell>
        <mxCell id="0LbBZXUiAwPrwAWk88Ti-47" value="" style="edgeStyle=entityRelationEdgeStyle;fontSize=12;html=1;endArrow=ERzeroToMany;startArrow=ERmandOne;rounded=0;exitX=1;exitY=0;exitDx=0;exitDy=0;entryX=0;entryY=0.5;entryDx=0;entryDy=0;" edge="1" parent="1" source="ONlgaFHXyNpKFOfT3H3A-9" target="ONlgaFHXyNpKFOfT3H3A-23">
          <mxGeometry width="100" height="100" relative="1" as="geometry">
            <mxPoint x="1090" y="320" as="sourcePoint" />
            <mxPoint x="1240" y="130" as="targetPoint" />
          </mxGeometry>
        </mxCell>
        <mxCell id="0LbBZXUiAwPrwAWk88Ti-48" value="" style="edgeStyle=entityRelationEdgeStyle;fontSize=12;html=1;endArrow=ERzeroToMany;startArrow=ERmandOne;rounded=0;exitX=1;exitY=0.5;exitDx=0;exitDy=0;entryX=0;entryY=0.5;entryDx=0;entryDy=0;" edge="1" parent="1" source="ONlgaFHXyNpKFOfT3H3A-9" target="ONlgaFHXyNpKFOfT3H3A-16">
          <mxGeometry width="100" height="100" relative="1" as="geometry">
            <mxPoint x="1140" y="550" as="sourcePoint" />
            <mxPoint x="1500" y="380" as="targetPoint" />
            <Array as="points">
              <mxPoint x="1470" y="460" />
            </Array>
          </mxGeometry>
        </mxCell>
        <mxCell id="0LbBZXUiAwPrwAWk88Ti-49" value="" style="edgeStyle=entityRelationEdgeStyle;fontSize=12;html=1;endArrow=ERzeroToMany;startArrow=ERmandOne;rounded=0;exitX=1;exitY=1;exitDx=0;exitDy=0;entryX=0;entryY=0.5;entryDx=0;entryDy=0;" edge="1" parent="1" source="ONlgaFHXyNpKFOfT3H3A-9" target="ONlgaFHXyNpKFOfT3H3A-30">
          <mxGeometry width="100" height="100" relative="1" as="geometry">
            <mxPoint x="1140" y="580" as="sourcePoint" />
            <mxPoint x="1500" y="540" as="targetPoint" />
            <Array as="points">
              <mxPoint x="1480" y="470" />
            </Array>
          </mxGeometry>
        </mxCell>
        <mxCell id="0LbBZXUiAwPrwAWk88Ti-50" value="" style="edgeStyle=entityRelationEdgeStyle;fontSize=12;html=1;endArrow=ERzeroToMany;startArrow=ERmandOne;rounded=0;exitX=1;exitY=0.75;exitDx=0;exitDy=0;entryX=0;entryY=0.75;entryDx=0;entryDy=0;" edge="1" parent="1" source="ONlgaFHXyNpKFOfT3H3A-2" target="ONlgaFHXyNpKFOfT3H3A-30">
          <mxGeometry width="100" height="100" relative="1" as="geometry">
            <mxPoint x="870" y="785" as="sourcePoint" />
            <mxPoint x="1190" y="820" as="targetPoint" />
            <Array as="points">
              <mxPoint x="910" y="800" />
              <mxPoint x="1250" y="800" />
            </Array>
          </mxGeometry>
        </mxCell>
        <mxCell id="0LbBZXUiAwPrwAWk88Ti-56" value="" style="endArrow=none;html=1;rounded=0;entryX=0;entryY=0.5;entryDx=0;entryDy=0;exitX=1;exitY=0.5;exitDx=0;exitDy=0;" edge="1" parent="1" source="ONlgaFHXyNpKFOfT3H3A-49" target="ONlgaFHXyNpKFOfT3H3A-51">
          <mxGeometry width="50" height="50" relative="1" as="geometry">
            <mxPoint x="1430" y="1340" as="sourcePoint" />
            <mxPoint x="1480" y="1290" as="targetPoint" />
          </mxGeometry>
        </mxCell>
        <mxCell id="0LbBZXUiAwPrwAWk88Ti-57" value="" style="endArrow=none;html=1;rounded=0;exitX=1;exitY=1;exitDx=0;exitDy=0;entryX=0;entryY=0.5;entryDx=0;entryDy=0;" edge="1" parent="1" source="ONlgaFHXyNpKFOfT3H3A-49" target="ONlgaFHXyNpKFOfT3H3A-52">
          <mxGeometry width="50" height="50" relative="1" as="geometry">
            <mxPoint x="1410" y="1330" as="sourcePoint" />
            <mxPoint x="1460" y="1280" as="targetPoint" />
          </mxGeometry>
        </mxCell>
        <mxCell id="0LbBZXUiAwPrwAWk88Ti-58" value="" style="endArrow=none;html=1;rounded=0;exitX=0;exitY=0;exitDx=0;exitDy=0;entryX=0.75;entryY=1;entryDx=0;entryDy=0;" edge="1" parent="1" source="ONlgaFHXyNpKFOfT3H3A-55" target="ONlgaFHXyNpKFOfT3H3A-49">
          <mxGeometry width="50" height="50" relative="1" as="geometry">
            <mxPoint x="1360" y="1330" as="sourcePoint" />
            <mxPoint x="1440" y="1280" as="targetPoint" />
          </mxGeometry>
        </mxCell>
        <mxCell id="0LbBZXUiAwPrwAWk88Ti-59" value="" style="endArrow=none;html=1;rounded=0;exitX=0.5;exitY=0;exitDx=0;exitDy=0;entryX=0.5;entryY=1;entryDx=0;entryDy=0;" edge="1" parent="1" source="ONlgaFHXyNpKFOfT3H3A-53" target="ONlgaFHXyNpKFOfT3H3A-49">
          <mxGeometry width="50" height="50" relative="1" as="geometry">
            <mxPoint x="1370" y="1310" as="sourcePoint" />
            <mxPoint x="1390" y="1090" as="targetPoint" />
          </mxGeometry>
        </mxCell>
        <mxCell id="0LbBZXUiAwPrwAWk88Ti-61" value="" style="endArrow=none;html=1;rounded=0;entryX=0.25;entryY=1;entryDx=0;entryDy=0;exitX=0.5;exitY=0;exitDx=0;exitDy=0;" edge="1" parent="1" source="ONlgaFHXyNpKFOfT3H3A-54" target="ONlgaFHXyNpKFOfT3H3A-49">
          <mxGeometry width="50" height="50" relative="1" as="geometry">
            <mxPoint x="1521" y="1386" as="sourcePoint" />
            <mxPoint x="1440" y="1240" as="targetPoint" />
          </mxGeometry>
        </mxCell>
        <mxCell id="0LbBZXUiAwPrwAWk88Ti-63" value="created at" style="ellipse;whiteSpace=wrap;html=1;" vertex="1" parent="1">
          <mxGeometry x="1310" y="1280" width="120" height="80" as="geometry" />
        </mxCell>
        <mxCell id="0LbBZXUiAwPrwAWk88Ti-64" value="" style="endArrow=none;html=1;rounded=0;entryX=0;entryY=1;entryDx=0;entryDy=0;" edge="1" parent="1" source="ONlgaFHXyNpKFOfT3H3A-56" target="ONlgaFHXyNpKFOfT3H3A-50">
          <mxGeometry width="50" height="50" relative="1" as="geometry">
            <mxPoint x="1080" y="1360" as="sourcePoint" />
            <mxPoint x="1130" y="1310" as="targetPoint" />
          </mxGeometry>
        </mxCell>
        <mxCell id="0LbBZXUiAwPrwAWk88Ti-65" value="" style="endArrow=none;html=1;rounded=0;entryX=0.25;entryY=1;entryDx=0;entryDy=0;exitX=0.604;exitY=-0.018;exitDx=0;exitDy=0;exitPerimeter=0;" edge="1" parent="1" source="ONlgaFHXyNpKFOfT3H3A-57" target="ONlgaFHXyNpKFOfT3H3A-50">
          <mxGeometry width="50" height="50" relative="1" as="geometry">
            <mxPoint x="1047" y="1335" as="sourcePoint" />
            <mxPoint x="1130" y="1290" as="targetPoint" />
          </mxGeometry>
        </mxCell>
        <mxCell id="0LbBZXUiAwPrwAWk88Ti-66" value="" style="endArrow=none;html=1;rounded=0;entryX=0.5;entryY=1;entryDx=0;entryDy=0;exitX=0.5;exitY=0;exitDx=0;exitDy=0;" edge="1" parent="1" source="ONlgaFHXyNpKFOfT3H3A-58" target="ONlgaFHXyNpKFOfT3H3A-50">
          <mxGeometry width="50" height="50" relative="1" as="geometry">
            <mxPoint x="1057" y="1345" as="sourcePoint" />
            <mxPoint x="1140" y="1300" as="targetPoint" />
          </mxGeometry>
        </mxCell>
        <mxCell id="0LbBZXUiAwPrwAWk88Ti-68" value="" style="endArrow=none;html=1;rounded=0;exitX=0.5;exitY=0;exitDx=0;exitDy=0;entryX=0.5;entryY=1;entryDx=0;entryDy=0;" edge="1" parent="1" source="ONlgaFHXyNpKFOfT3H3A-60" target="ONlgaFHXyNpKFOfT3H3A-50">
          <mxGeometry width="50" height="50" relative="1" as="geometry">
            <mxPoint x="1220" y="1340" as="sourcePoint" />
            <mxPoint x="1270" y="1290" as="targetPoint" />
          </mxGeometry>
        </mxCell>
        <mxCell id="0LbBZXUiAwPrwAWk88Ti-69" value="" style="endArrow=none;html=1;rounded=0;entryX=0.5;entryY=1;entryDx=0;entryDy=0;exitX=0;exitY=0;exitDx=0;exitDy=0;" edge="1" parent="1" source="ONlgaFHXyNpKFOfT3H3A-59" target="ONlgaFHXyNpKFOfT3H3A-50">
          <mxGeometry width="50" height="50" relative="1" as="geometry">
            <mxPoint x="1067" y="1355" as="sourcePoint" />
            <mxPoint x="1150" y="1310" as="targetPoint" />
          </mxGeometry>
        </mxCell>
        <mxCell id="0LbBZXUiAwPrwAWk88Ti-70" value="" style="endArrow=none;html=1;rounded=0;entryX=1;entryY=1;entryDx=0;entryDy=0;exitX=0;exitY=0;exitDx=0;exitDy=0;" edge="1" parent="1" source="0LbBZXUiAwPrwAWk88Ti-63" target="ONlgaFHXyNpKFOfT3H3A-50">
          <mxGeometry width="50" height="50" relative="1" as="geometry">
            <mxPoint x="1310" y="1320" as="sourcePoint" />
            <mxPoint x="1160" y="1320" as="targetPoint" />
          </mxGeometry>
        </mxCell>
        <mxCell id="0LbBZXUiAwPrwAWk88Ti-71" value="" style="edgeStyle=entityRelationEdgeStyle;fontSize=12;html=1;endArrow=ERzeroToMany;startArrow=ERmandOne;rounded=0;exitX=1;exitY=0.5;exitDx=0;exitDy=0;entryX=0;entryY=0.25;entryDx=0;entryDy=0;" edge="1" parent="1" source="ONlgaFHXyNpKFOfT3H3A-42" target="ONlgaFHXyNpKFOfT3H3A-49">
          <mxGeometry width="100" height="100" relative="1" as="geometry">
            <mxPoint x="1130" y="975" as="sourcePoint" />
            <mxPoint x="1230" y="1210" as="targetPoint" />
            <Array as="points">
              <mxPoint x="920" y="800" />
              <mxPoint x="1140" y="1040" />
              <mxPoint x="1150" y="1150" />
              <mxPoint x="1210" y="1030" />
              <mxPoint x="1160" y="1240" />
              <mxPoint x="1160" y="1230" />
              <mxPoint x="1260" y="800" />
              <mxPoint x="1100" y="1150" />
              <mxPoint x="1200" y="1093" />
              <mxPoint x="1190" y="1130" />
              <mxPoint x="1190" y="1130" />
            </Array>
          </mxGeometry>
        </mxCell>
        <mxCell id="0LbBZXUiAwPrwAWk88Ti-72" value="" style="edgeStyle=entityRelationEdgeStyle;fontSize=12;html=1;endArrow=ERmandOne;startArrow=ERmandOne;rounded=0;entryX=0;entryY=0.25;entryDx=0;entryDy=0;exitX=1;exitY=0.75;exitDx=0;exitDy=0;" edge="1" parent="1" source="ONlgaFHXyNpKFOfT3H3A-42" target="ONlgaFHXyNpKFOfT3H3A-50">
          <mxGeometry width="100" height="100" relative="1" as="geometry">
            <mxPoint x="1190" y="1150" as="sourcePoint" />
            <mxPoint x="1250" y="1110" as="targetPoint" />
            <Array as="points">
              <mxPoint x="1220" y="1150" />
              <mxPoint x="1180" y="1170" />
              <mxPoint x="1160" y="1080" />
            </Array>
          </mxGeometry>
        </mxCell>
      </root>
    </mxGraphModel>
  </diagram>
</mxfile>
